# xmcd
#
# Track frame offsets:
# 150
# 14632
# 28014
# 41570
# 55089
# 73144
# 88298
# 106144
# 122640
# 137530
# 154242
# 170780
# 185525
# 199549
# 216911
# 234111
# 253529
# 266548
# 279491
#
# Disc length: 3923 seconds
#
#
# Revision: 0
# Processed by: cddbd v1.5.2PL0 Copyright (c) Steve Scherf et al.
# Submitted via: FreeRIP 2.945 
#
DISCID=120f5113
DTITLE=Henry-M1963 - Stormy4
DYEAR=1963
DGENRE=Jungle
TTITLE0=St 401
TTITLE1=St 402
TTITLE2=St 403
TTITLE3=St 404
TTITLE4=St 405
TTITLE5=St 406
TTITLE6=St 407
TTITLE7=St 408
TTITLE8=St 409
TTITLE9=St 410
TTITLE10=St 411
TTITLE11=St 412
TTITLE12=St 413
TTITLE13=St 414
TTITLE14=St 415
TTITLE15=St 416
TTITLE16=St 417
TTITLE17=St 418
TTITLE18=St 419
EXTD=Stormy, Misty's Foal by Marguerite Henry\nread by John McDonough 5 CDs 1963\nrecorded books Jungle country
EXTT0=
EXTT1=
EXTT2=
EXTT3=
EXTT4=
EXTT5=
EXTT6=
EXTT7=
EXTT8=
EXTT9=
EXTT10=
EXTT11=
EXTT12=
EXTT13=
EXTT14=
EXTT15=
EXTT16=
EXTT17=
EXTT18=
PLAYORDER=
